<svg xmlns="http://www.w3.org/2000/svg" viewBox="0 0 700 280" class="w-full">
  <defs>
    <marker id="bp-arr" markerWidth="8" markerHeight="8" refX="7" refY="3" orient="auto">
      <path d="M0,0 L0,6 L7,3 z" fill="#475569"/>
    </marker>
  </defs>
  <text x="350" y="22" text-anchor="middle" fill="#475569" style="font:600 13px sans-serif">Абстрактный бизнес-процесс (BPMN)</text>
  <text x="350" y="38" text-anchor="middle" fill="#94a3b8" style="font:400 10px sans-serif">8 элементов: 1 событие-старт · 4 задачи · 1 шлюз · 2 конечных события</text>
  <text x="50" y="120" text-anchor="middle" fill="#065f46" style="font:500 9px sans-serif">старт</text>
  <circle cx="50" cy="140" r="14" fill="white" stroke="#10b981" stroke-width="2.5"/>
  <line x1="66" y1="140" x2="100" y2="140" stroke="#475569" stroke-width="1.5" marker-end="url(#bp-arr)"/>
  <rect x="105" y="122" width="110" height="36" fill="#dbeafe" stroke="#2563eb" stroke-width="1.5" rx="8"/>
  <text x="160" y="138" text-anchor="middle" fill="#1e40af" style="font:500 11px sans-serif">Получить</text>
  <text x="160" y="151" text-anchor="middle" fill="#1e40af" style="font:500 11px sans-serif">входные данные</text>
  <line x1="217" y1="140" x2="251" y2="140" stroke="#475569" stroke-width="1.5" marker-end="url(#bp-arr)"/>
  <rect x="255" y="122" width="110" height="36" fill="#dbeafe" stroke="#2563eb" stroke-width="1.5" rx="8"/>
  <text x="310" y="138" text-anchor="middle" fill="#1e40af" style="font:500 11px sans-serif">Обработать</text>
  <text x="310" y="151" text-anchor="middle" fill="#1e40af" style="font:500 11px sans-serif">данные</text>
  <line x1="367" y1="140" x2="403" y2="140" stroke="#475569" stroke-width="1.5" marker-end="url(#bp-arr)"/>
  <polygon points="440,140 470,108 500,140 470,172" fill="#fffbeb" stroke="#d97706" stroke-width="2"/>
  <text x="470" y="146" text-anchor="middle" fill="#b45309" style="font:700 18px sans-serif">✗</text>
  <text x="450" y="96" text-anchor="middle" fill="#15803d" style="font:600 10px sans-serif">да</text>
  <line x1="500" y1="120" x2="540" y2="85" stroke="#475569" stroke-width="1.5" marker-end="url(#bp-arr)"/>
  <text x="455" y="195" text-anchor="middle" fill="#b91c1c" style="font:600 10px sans-serif">нет</text>
  <line x1="500" y1="160" x2="540" y2="195" stroke="#475569" stroke-width="1.5" marker-end="url(#bp-arr)"/>
  <rect x="545" y="65" width="100" height="36" fill="#d1fae5" stroke="#059669" stroke-width="1.5" rx="8"/>
  <text x="595" y="81" text-anchor="middle" fill="#065f46" style="font:500 11px sans-serif">Передать</text>
  <text x="595" y="94" text-anchor="middle" fill="#065f46" style="font:500 11px sans-serif">результат</text>
  <line x1="647" y1="83" x2="673" y2="83" stroke="#475569" stroke-width="1.5" marker-end="url(#bp-arr)"/>
  <circle cx="686" cy="83" r="12" fill="#059669" stroke="#059669" stroke-width="3"/>
  <rect x="545" y="175" width="100" height="36" fill="#fee2e2" stroke="#dc2626" stroke-width="1.5" rx="8"/>
  <text x="595" y="191" text-anchor="middle" fill="#991b1b" style="font:500 11px sans-serif">Отклонить</text>
  <text x="595" y="204" text-anchor="middle" fill="#991b1b" style="font:500 11px sans-serif">с уведомлением</text>
  <line x1="647" y1="193" x2="673" y2="193" stroke="#475569" stroke-width="1.5" marker-end="url(#bp-arr)"/>
  <circle cx="686" cy="193" r="12" fill="#dc2626" stroke="#dc2626" stroke-width="3"/>
</svg>